<svg width="275" height="39" viewBox="0 0 275 39" fill="none" xmlns="http://www.w3.org/2000/svg">
<g clip-path="url(#clip0_9_31)">
<path d="M84.2253 3.03597L75.772 36.2965L84.744 36.9337L86.0408 31.0145L92.0262 30.1607L93.87 36.0636L102.032 33.5023L92.4193 2.82764L84.2253 3.03597ZM87.062 26.6803L88.7924 19.8174L90.774 26.1533L87.066 26.6843L87.062 26.6803Z" fill="#F9F6BD"/>
<path d="M0 3.71812L0.466026 12.3131L9.04091 11.8392V34.5235H17.6158V11.3694L26.6607 10.8425L26.1907 2.25159L0 3.71812Z" fill="#F9F6BD"/>
<path d="M52.0737 11.6836C51.1741 8.6116 49.4234 6.32397 46.8258 4.82067C44.2283 3.31737 41.3875 2.93337 38.3036 3.66868C37.3675 3.94647 36.4679 4.33046 35.6007 4.82067L28.0146 9.22027V34.1023H36.5895V27.6071L39.9651 26.6634L45.7317 36.6677L53.1111 32.3212L48.0699 23.5711C51.7779 20.4297 53.1111 16.4631 52.0697 11.6795L52.0737 11.6836ZM41.886 17.1861L36.5854 18.6527V14.1999L39.8598 12.3127C40.6581 11.8592 41.4443 11.7979 42.2264 12.1288C43.0044 12.4597 43.515 13.0643 43.7582 13.9344C44.0337 15.5398 43.4097 16.6265 41.886 17.182V17.1861Z" fill="#F9F6BD"/>
<path d="M75.7679 25.5647H63.0393V22.5254H67.8171V13.8815H63.0393V11.1036L72.0275 11.6837L72.4936 3.03973L54.4644 1.98987V34.2087H75.7679V25.5647Z" fill="#F9F6BD"/>
<path d="M99.154 3.71812L99.6201 12.3131L108.195 11.8392V34.5235H116.77V11.3694L125.815 10.8425L125.345 2.25159L99.154 3.71812Z" fill="#F9F6BD"/>
<path d="M226.809 3.03597L218.356 36.2965L227.328 36.9337L228.624 31.0145L234.61 30.1607L236.454 36.0636L244.615 33.5023L234.999 2.82764L226.805 3.03597H226.809ZM229.646 26.6803L231.376 19.8174L233.358 26.1533L229.65 26.6843L229.646 26.6803Z" fill="#F9F6BD"/>
<path d="M184.003 2.82764C182.998 2.82764 181.94 2.98695 180.834 3.29742L173.973 5.13161L172.101 34.2049L180.676 34.7809L181.142 27.7097C182.666 27.7097 184.088 27.6566 185.405 27.5545C186.722 27.4482 187.979 27.146 189.174 26.6394C190.369 26.1329 191.557 25.2873 192.736 24.0985C195.159 21.6556 196.371 18.7185 196.371 15.2993C196.371 11.8801 195.159 8.94296 192.736 6.5001C190.309 4.05724 187.399 2.83172 184.007 2.83172L184.003 2.82764ZM186.678 17.9668C185.932 18.7022 185.041 19.0657 184.003 19.0657H181.665L182.131 11.8883C182.686 11.6432 183.31 11.5206 184.003 11.5206C185.041 11.5206 185.932 11.8801 186.678 12.595C187.423 13.3099 187.796 14.2127 187.796 15.2911C187.796 16.3696 187.423 17.2315 186.678 17.9628V17.9668Z" fill="#F9F6BD"/>
<path d="M218.356 24.9886L206.766 25.4052L207.908 4.76756L199.334 4.3468L197.725 34.3638L218.356 33.5549V24.9886Z" fill="#F9F6BD"/>
<path d="M267.621 0L259.459 13.9341L253.275 3.92982L246.001 8.48466L254.524 22.3166L247.456 34.4697L254.118 39L258.941 31.8512L275 4.3996L267.621 0Z" fill="#F9F6BD"/>
<path d="M162.011 26.9619C161.456 26.5248 161.123 26.247 161.01 26.1286L158.895 24.2985C159.758 23.2609 160.422 22.1048 160.88 20.8302C161.338 19.5557 161.585 18.2853 161.614 17.0107L161.561 16.3285C161.513 16.1243 161.444 15.9854 161.359 15.9078C161.273 15.8301 161.132 15.777 160.937 15.7607C160.597 15.7852 160.349 15.8179 160.195 15.8506L159.417 15.9118C159.101 15.9364 158.647 15.965 158.06 15.9976C157.472 16.0303 157.043 16.0589 156.771 16.0793L154.773 16.2346C154.319 16.2672 153.983 16.4021 153.756 16.639C153.529 16.8759 153.404 17.1374 153.371 17.4233C153.343 17.7134 153.298 18.0524 153.238 18.4487C153.177 18.8449 153.075 19.1595 152.934 19.4005C151.722 18.416 150.806 17.6848 150.178 17.2068C151.657 16.0181 152.763 14.8456 153.509 13.6977C154.251 12.5458 154.571 11.3162 154.473 10.0089C154.388 8.86922 154.003 7.90106 153.314 7.10039C152.63 6.29972 151.746 5.71147 150.66 5.32747C149.574 4.94756 148.431 4.69429 147.228 4.56765C146.024 4.44102 144.76 4.43285 143.427 4.53497C141.992 4.64527 140.695 4.87812 139.536 5.22943C138.377 5.58075 137.364 6.05053 136.501 6.63878C135.638 7.22702 134.99 7.96642 134.556 8.85696C134.122 9.7475 133.948 10.7483 134.033 11.8513C134.118 12.9788 134.54 14.0491 135.298 15.0622C136.055 16.0752 136.979 16.8718 138.069 17.4519C134.118 19.2902 132.27 21.8842 132.526 25.2298C132.635 26.6637 133.219 27.9178 134.276 28.9963C135.334 30.0706 136.769 30.8713 138.572 31.3983C140.379 31.9253 142.393 32.1009 144.618 31.9293L146.109 31.815C147.613 31.5739 149.534 30.8059 151.864 29.5192L152.541 29.466C153.29 29.8991 154.02 30.1728 154.733 30.2831C155.446 30.3934 156.463 30.3974 157.784 30.2994L163.441 29.8664C163.867 29.801 164.07 29.6009 164.045 29.27C164.025 28.984 163.818 28.6409 163.429 28.2365C163.04 27.832 162.57 27.4113 162.015 26.9701L162.011 26.9619ZM142.239 9.64129C142.722 9.19193 143.297 8.94275 143.962 8.88964C144.379 8.85696 144.796 8.88964 145.21 8.97543C145.627 9.0653 146.012 9.25729 146.369 9.5555C146.725 9.85371 146.924 10.2418 146.96 10.7197C146.993 11.1528 146.875 11.6021 146.612 12.0678C146.344 12.5335 146.008 12.9543 145.591 13.3301L144.825 14.0409C144.792 14.0409 144.756 14.0531 144.723 14.0654C144.691 14.0777 144.659 14.0899 144.622 14.0899C143.962 13.902 143.321 13.5425 142.709 13.0155C142.097 12.4886 141.721 11.9289 141.587 11.3325C141.534 10.6503 141.749 10.0825 142.235 9.63312L142.239 9.64129ZM144.975 26.7454C144.557 26.7781 144.132 26.7495 143.698 26.6637C143.265 26.5779 142.855 26.4349 142.466 26.2429C142.077 26.0509 141.749 25.7732 141.481 25.4096C141.214 25.046 141.064 24.6334 141.028 24.1637C140.979 23.5386 141.149 22.8932 141.538 22.2273C141.923 21.5615 142.373 21.0835 142.888 20.7935C142.957 20.7894 143.208 20.9528 143.641 21.2837L144.622 22.068C144.853 22.2559 145.453 22.738 146.425 23.51C147.398 24.2821 148.127 24.903 148.618 25.3687C147.341 26.198 146.126 26.6596 144.975 26.7495V26.7454Z" fill="#F9F6BD"/>
</g>
<defs>
<clipPath id="clip0_9_31">
<rect width="275" height="39" fill="white"/>
</clipPath>
</defs>
</svg>
